<svg id="Layer_1" data-name="Layer 1" xmlns="http://www.w3.org/2000/svg" viewBox="0 0 379.9 186.75"><defs><style>.cls-1{fill:#050402;}.cls-2{fill:#a49d78;}.cls-3{fill:#b6b6b6;}.cls-4{fill:#f1e294;}.cls-5{fill:#969696;}.cls-6{fill:#9c9a96;}.cls-7{fill:#a49d7a;}.cls-8{fill:#baab66;}.cls-9{fill:#bcab66;}.cls-10{fill:#f4cc46;}.cls-11{fill:#f2cb48;}.cls-12{fill:#f2cb47;}.cls-13{fill:#a69e79;}.cls-14{fill:#fefefe;}.cls-15{fill:#f1ca48;}</style></defs><path class="cls-1" d="M102.74,4.57c6.39-7,11.74-5.92,14.82,3.16,1.48,4.37,3.13,8.7,4.18,13.18.7,2.95,2.11,3.75,4.91,3.74,28.1-.15,56.2-.42,84.29-.14,7.46.07,14.28,4,21.44,6.08,4.66,1.31,9.28,2.78,13.91,4.19,11.9,3.67,23.74,7.53,35.65,11.14,1,.29,2,1.43,3.1.34s.17-2.16-.2-3.14c-1.6-4.19-2.94-8.48-4.85-12.55a6.56,6.56,0,0,1,.46-7.06c3.18-4.38,8.08-4.12,11,.52,1.69,2.68,2.38,5.76,3.26,8.73,1.52,5.11,3.47,10.1,4.44,15.37A5.76,5.76,0,0,0,303.61,53c14.58,4.29,29,9.11,43.49,13.66,9.51,3,19,5.93,28.52,9.08.92.31,2.2.32,2.25,1.58.05,1.51-1.24,1.94-2.46,2.36-13.07,4.53-26.1,9.22-39.16,13.8-9.05,3.18-18,6.57-27.13,9.61-2.4.8-3.29,2-3.27,4.58.18,16.09-1.64,32.1-1.88,48.17,0,1.49.3,4.07-1.41,4.18-2.38.14-1.39-2.44-1.54-3.86-1.21-11.75-1.82-23.56-2.63-35.35-.25-3.72-1.11-7.37-1.14-11.12,0-2.24-1.59-1.78-2.95-1.31-6.14,2.11-12.28,4.22-18.39,6.41-20.87,7.46-41.8,14.78-62.61,22.4a13.34,13.34,0,0,1-4.79.54H137.7c-4.64,0-4.71.11-5,4.8-.7,12.8-1.77,25.57-2.27,38.37,0,1,.08,2.4-1.1,2.47-1.48.09-1.5-1.35-1.5-2.5V176c-.68-9.43-1.47-18.85-1.87-28.29-.12-2.62-1-5.13-.82-7.79.11-1.59-1-2.16-2.41-2.16l-3.37,0H6.6c-4.85,0-5.84-1.09-5.85-5.56,0-3,1.33-4.39,4.24-4.48,1.5,0,3,0,4.49,0H117.77c5.63,0,5.66,0,5.61-5.46,0-6.11-1-12.14-1.56-18.21-.76-8.42-1.54-16.84-2.86-25.19-1.24-7.87-2.54-15.71-4.42-23.46-1.32-5.44-2.22-11-3.7-16.39-1.33-4.86-1.33-5-6.59-5H17c-3.87,0-7.75.09-11.62,0S.68,32.71.79,28.67c.09-3.48.72-4.09,4.69-4.1q47.21,0,94.42,0c1.12,0,2.25.06,3.37,0,2.91-.22,3.48-1.08,2.38-3.84a20.86,20.86,0,0,0-1.49-3.82C102.18,13,101,8.93,102.74,4.57Z"/><path class="cls-2" d="M104.27,16.23a45.23,45.23,0,0,1,2.85,6.38c.89,3.2-1.71,2.62-3.45,2.62q-48.35,0-96.69,0c-2.7,0-5.38-.73-5.43,3.84-.05,4.85,3.05,3.62,5.51,3.62,32.6,0,65.2.1,97.8-.06,4.28,0,5.88,1.34,7,5.51,7.56,28.33,10.77,57.26,12.89,86.39.28,3.8-1.09,4.33-4.32,4.33q-56.78-.14-113.55,0c-2.38,0-5.3-1.11-5.38,3.44s2.3,4.63,5.65,4.63c38-.06,75.95,0,113.92-.1,3.65,0,5,.93,5.09,4.8.41,11.7,1.31,23.39,2,35.09-.23.4-.43.39-.6,0l-.32-2.46c-.36-1,0-2.15-.29-3.19l-.45-5.07c-.43-2.54.1-5.12-.3-7.66l-.43-5.08c-.41-1,0-2.14-.32-3.18l-.45-5.81c-.41-1.8.07-3.64-.29-5.44a2.06,2.06,0,0,0-.51-.51c-5-.28-10-.11-15-.11q-51.29,0-102.57,0A22.58,22.58,0,0,1,2.58,138l-2-1.3a31,31,0,0,1,0-7.82l.32-.77a2.32,2.32,0,0,1,2.15-1.63c37.82.49,75.64.1,113.46.18,5.42,0,6.28-1,5.62-6.53-.42-3.47-.77-6.94-1.16-10.41-.24-3.45-1.12-6.86-.7-10.36-1.47-10.64-2.58-21.32-4.51-31.89-1-5.27-1.22-5.37-6.49-5.6-29.22-1.28-58.46-.54-87.68-.73a85.85,85.85,0,0,0-12.72.55c-2.21.32-4.5.47-6.61-.65a7.8,7.8,0,0,1-.07-8.64c2.15-.92,4.42-.65,6.65-.65q47.72,0,95.44,0c8.18,0,8.66-.51,6.42-8.22-2.83-9.68-1.63-8.54-11.27-8.56-30.19-.07-60.38,0-90.57,0a22.37,22.37,0,0,1-6.32-.41C.48,33.81.33,32.13.41,30.34a30.27,30.27,0,0,1,.16-4.76c.81-2.66,3.05-1.66,4.71-1.66,31.3-.06,62.59-.14,93.89.06,5.3,0,8-.66,4.82-6.41C103.88,17.08,103.79,16.6,104.27,16.23Z"/><path class="cls-3" d="M127.58,176.63a1.5,1.5,0,0,0,.6,0c.52,2-.46,4.16,1,5.94.22-2,.5-4.09.64-6.14.87-12.2,1.75-24.4,2.5-36.6.15-2.38,1.32-2.91,3.37-2.91q36.35.09,72.7.11c7,0,12.88-3.63,19.17-5.79,22-7.57,43.89-15.5,65.8-23.37,3.32-1.19,4.44-.69,4.69,3.21,1,15.56,2.38,31.09,3.66,46.63a6.86,6.86,0,0,0,.74,1.9,15.51,15.51,0,0,0,.81-3.13c.68-15.72,1.57-31.43,1.79-47.15.06-4.76,2-6.38,6-7.75,21.56-7.41,43.05-15,64.55-22.64a7.56,7.56,0,0,0,1.94-1.55,12.9,12.9,0,0,0-2.13-1.14q-36-11.36-72-22.65c-2.74-.87-4.14-2.58-4.93-5.44-2-7.43-4.36-14.77-6.76-22.09-1.15-3.51-3.61-6.29-7.53-4.69s-5.49,4.73-3.57,9.15,3.64,9.28,5.31,14c.59,1.64.86,3.66-2,2.77C271.44,43.41,259,39.4,246.56,35.4c-.14,0-.18-.41-.27-.62,10.28,1.68,19.77,6.1,29.79,8.69,2.84.74,5.64,1.58,8.46,2.37.43-3.15-1.72-5.55-2.49-8.36-.88-3.21-2.37-6.28-3.07-9.52-.85-3.91,1.44-6.68,4.88-7.7,3.7-1.1,7.08.2,8.45,4.2,2.59,7.51,5.31,15,7.28,22.68.9,3.49,2.68,4.87,5.72,5.83q35.94,11.27,71.83,22.71c1,.32,2.83.09,2.75,1.92-.07,1.64-1.66,1.64-2.78,2-22.39,8-44.77,15.93-67.2,23.76-2.62.91-3.23,2.28-3.33,4.89-.64,17.42-1.45,34.83-2.32,52.25-.08,1.68.15,4.53-2.21,4.41s-1.34-2.8-1.46-4.41q-1.87-24.93-3.62-49.86c-.2-3-1.7-2-3.26-1.48-21.11,7.48-42.26,14.86-63.32,22.5-11.12,4-22,7.46-34.32,6.93-19.57-.84-39.21-.16-58.83-.27-2.85,0-3.79.69-3.91,3.72-.54,13.81-1.41,27.6-2.12,41.4-.09,1.63-.48,3.4-2.21,3.28-1.52-.11-1.49-2-1.5-3.38C127.49,181.12,127.55,178.88,127.58,176.63Z"/><path class="cls-4" d="M2.32,127.22c-.47.28-.93.57-1.39.86-1.64-6.74-.19-13.51-.2-20.26,0-12.3-1-24.63-.49-36.9C.84,57,.05,43.1.12,29.19a31.5,31.5,0,0,1,.45-3.61c.76,2.71-1.31,6,1.61,8.25a3.25,3.25,0,0,1,1.26,2.6,111.51,111.51,0,0,1,0,14.16,3.31,3.31,0,0,1-1.1,2.3c-1.46,2.59-1,5.19,0,7.79a4.76,4.76,0,0,1,1.26,3.77c0,11.65.31,23.31-.17,35a19.3,19.3,0,0,0,.22,10.31c0,4.32-.08,8.64-.08,13C3.53,124.29,3.53,125.92,2.32,127.22Z"/><path class="cls-4" d="M2.58,138q60.12-.06,120.23-.09a5.94,5.94,0,0,1,1.41.35l-120.63.14A3.13,3.13,0,0,1,2.58,138Z"/><path class="cls-4" d="M104.27,16.23,104,17.57c-1.78-4.21-4.67-8.3-1.26-13A20.73,20.73,0,0,0,104.27,16.23Z"/><path class="cls-4" d="M.61,128.85v7.82A12.81,12.81,0,0,1,.61,128.85Z"/><path class="cls-4" d="M126.22,158.25l.3,7.67C125.65,163.39,126.05,160.81,126.22,158.25Z"/><path class="cls-4" d="M124.73,138.74c.1,1.81.19,3.63.29,5.44C124.92,142.36,124.83,140.55,124.73,138.74Z"/><path class="cls-4" d="M125.47,150c.11,1.06.21,2.13.32,3.19C125.68,152.11,125.58,151.05,125.47,150Z"/><path class="cls-4" d="M127,171l.3,3.19C127.16,173.1,127.07,172,127,171Z"/><path class="cls-5" d="M302.19,63.42c-.14-1.75,1.18-1.69,3.32-1,15,4.73,30.11,9.36,45.15,14.08.74.23,1.72,1,1.84,1.59.2,1.1-1.08,1.1-1.85,1.38L309.51,94c-2.77,1-4.43.8-4.42-2.91C305.12,82.13,303.88,73.26,302.19,63.42Z"/><path class="cls-6" d="M234.56,40.31c9.1,1.1,17.37,5.08,26.09,7.52s17.54,5.58,26.32,8.35a4.43,4.43,0,0,1,3.46,3.45,291.38,291.38,0,0,1,6.12,35.22c.27,2.57-.23,4.17-2.94,5.13-18.19,6.37-36.33,12.89-54.5,19.31a18,18,0,0,1-3.64.52c-1.41.88-3,1.73-4.5.69s-1.2-3-.88-4.51c.57-2.75-.52-4.45-2.75-5.91a24,24,0,0,0-9-3.49,14.43,14.43,0,0,1-2.91-.58c-.93-.39-2-.75-2.06-1.92s.93-1.76,1.89-2c4-.92,6.56-3.85,9.53-6.23,8.62-6.71,7.48-22.93,1.75-29.5-2.45-2.8-5.85-4.2-8.78-6.3-1.4-1-3.42-1.68-2.91-3.84.57-2.36,2.69-2.77,4.79-2.71,3.26.09,6.07-.63,8.43-3.15a6.36,6.36,0,0,0,1.76-6.45c-.38-1.47-1.91-3.26-.2-4.45C231.19,38.41,233,39.58,234.56,40.31Z"/><path class="cls-2" d="M234.56,40.31c-3.15-.81-5.76-1.72-3.78,3.6s-3,10.45-9.59,10.65c-2,.06-4.83-.77-5.51,1.84-.63,2.39,2.35,2.6,3.77,3.37,14.28,7.73,14.2,19,10.7,31.93-.66,2.45-3.33,2.9-4.47,4.81-.64.42-1.22.5-1.68-.26a4.21,4.21,0,0,1,1.15-3.08c5.56-7,5.46-14.74,2-22.16s-10.56-10.68-18.46-10.78c-23.61-.29-47.23-.12-70.84-.1-3.12,0-5.43,1.26-6.72,4.17L129,50.78l.66,0c1.59,1.65,3.54,2,5.77,2,26.68-.05,53.36,0,80-.05,3.78,0,7.47-.66,10.44-3.23s3-4.33.82-7.41a12.4,12.4,0,0,0-5-4.34A3.29,3.29,0,0,1,220.6,37a.88.88,0,0,1-.08-1.18A50.19,50.19,0,0,1,234.56,40.31Z"/><path class="cls-2" d="M231,121.29a71.31,71.31,0,0,1-16.38,6c-.14-2.46,2-2.55,3.47-3.17,2.68-1.14,5.24-2.37,7-4.77,2.3-3.11,1.59-5.93-1.9-7.56a19.36,19.36,0,0,0-8.3-2q-36.67,0-73.34,0c-5.31,0-5.95.74-6,6.12,0,2.25,0,4.49,0,6.73,0,2.65,1.33,3.87,3.9,4,.87,0,1.74.08,2.61.08,21.46,0,42.91,0,64.36,0,2.63,0,5.44-1.42,7.94.61-1,1.86-2.8,1.38-4.34,1.38q-36.63,0-73.28,0c-2.41,0-4.1-.29-4-3.39.37-9.07.55-18.15.81-27.22,2.77,2.9,6.33,2.54,9.88,2.53,21.65,0,43.3-.11,64.95.07,3.49,0,6.81-1.45,10.3-.74.79,1.13-.11,1.76-.88,1.91-3.27.68-6.35,2-9.84,1.94-22.22-.12-44.45-.08-66.67,0-1.49,0-3.16-.57-4.41.82,1.37.93,2.9.35,4.33.36,21.84.15,43.68-.38,65.51,0,6.75.13,13.65.41,19.88,4.06,3.09,1.81,4.66,3.78,4,7.48C230.38,118.08,229.78,119.83,231,121.29Z"/><path class="cls-7" d="M231,121.29c-1.28-.2-1.45-.9-1.3-2.14.9-7.43-3-11.68-10.49-12.18-20.58-1.38-41.17-.47-61.76-.67-7-.07-14,.32-20.94.58-1.36.05-2.21-.19-2.25-1.7,0-1.32,0-2.59,1.8-2.63,1,0,2,0,3,0q36.16,0,72.35,0c2.69,0,5.48.08,7.53-2.24.68-2.73,2.63-3.69,5.24-3.74h1.5c-3,2.25-5.26,5.52-9.3,6.25-.78.15-2.11.73-2.11,1.13,0,1.29,1.45,1.28,2.24,1.36a25.59,25.59,0,0,1,11.77,4.14c2.39,1.59,3.7,3.42,2.87,6.48-1.06,3.88.36,5.39,4.32,3.94C234.36,121.43,232.64,121.25,231,121.29Z"/><path class="cls-8" d="M224.18,96.51l-5.24,3.74a38.06,38.06,0,0,1-11.78,1.56q-34.07-.14-68.13,0c-3,0-4.93-.54-5.45-3.69l-.15-1.94a33.85,33.85,0,0,1-.11-9.43c2.47.18,2,2.21,2.08,3.64.31,10.41,1.37,8.5,9.3,8.54,21.36.09,42.73-.27,64.08.18,8.25.18,18.12-6.85,19.13-17.83.75-8-5.72-16.35-14.85-18.6a35.1,35.1,0,0,0-8.54-.93q-32,0-64.09,0c-6.17,0-6.17,0-7.88,5.73a1.1,1.1,0,0,1-1.12.58c-.11-1.26-.22-2.53-.34-3.81-.75-4.87,2.79-5.18,6-5.19,24.08-.1,48.17-.46,72.23.08,16.29.36,25.74,16,19.31,30.94C227.61,92.46,225.68,94.39,224.18,96.51Z"/><path class="cls-9" d="M220.52,35.81a4.39,4.39,0,0,0-.07.72c-1.52,1.27-3.12.64-4.58,0-3.41-1.49-7-1.67-10.6-1.66q-34.38,0-68.75,0c-2.1,0-4.25.27-6.24-.73a1.17,1.17,0,0,1-.64-1.2c27.51-.05,55-.19,82.53,0C215,33,217.74,34.8,220.52,35.81Z"/><path class="cls-2" d="M131.43,68.11A3.29,3.29,0,0,1,132,68a3.09,3.09,0,0,1,1.66,2.36c.66,4.67,1.5,9.33,1,14.08a3.26,3.26,0,0,1-1,2.31l-.12,9.47Q132.42,82.16,131.43,68.11Z"/><path class="cls-2" d="M129.64,33a2.25,2.25,0,0,1,.08.58,5.44,5.44,0,0,0-1.3,5c.48,3.15,1.69,6.17,1.63,9.41a3.63,3.63,0,0,1-1,2.78h0c-1.24-5.15-2.74-10.26-3.62-15.47C124.75,31.62,127.7,32.85,129.64,33Z"/><path class="cls-10" d="M2.35,100.18q0-19.74,0-39.5c30.93-1.74,61.89-.47,92.84-.78,5.72-.06,11.44.54,17.17.55,2.65,0,3.74,1,4.2,3.52q3.2,17.63,4.91,35.44c-1.26,2-3.19,2.66-5.4,2.84-1.86.15-3.73.11-5.6.11q-44.1,0-88.2,0c-4.85,0-9.68-.61-14.54-.16C5.71,102.4,3.67,102.06,2.35,100.18Z"/><path class="cls-11" d="M2.32,127.22c.26-6-.87-12,.66-17.92,1.7-2.52,4.37-2.12,6.8-2.13,12.62-.08,25.24,0,37.86,0q33.92,0,67.83,0c2.4,0,5.14-.6,6.72,2.14.49,4.82,1,9.64,1.46,14.46.25,2.77-1,4.17-3.89,4.17q-56.9,0-113.78,0A21.36,21.36,0,0,1,2.32,127.22Z"/><path class="cls-12" d="M2.31,52.89q-.06-9.54-.13-19.06Q38.1,33.7,74,33.58c10.36,0,20.71.05,31.07,0,3,0,4.83.7,5.31,4.19a57.86,57.86,0,0,0,2.79,10C114.69,52.25,112,53,108.62,53q-21,.06-41.93,0Z"/><path class="cls-13" d="M122.19,109.31c-1.69-1.11-3.61-.82-5.46-.82q-53.92,0-107.86.05A44.16,44.16,0,0,0,3,109.3c-2.68-2.87-1.59-6-.63-9.11,5.21,1.71,10.59.59,15.84.64,32.14.28,64.28.11,96.43.19a19.14,19.14,0,0,0,6.81-1.61C121.68,102.71,121.94,106,122.19,109.31Z"/><path class="cls-14" d="M295.75,95.5c0,2-1.1,2.59-2.71,3.16q-26.4,9.39-52.74,18.92c-2.18.78-3.38.76-3.42-2.22a12.43,12.43,0,0,0-6.34-10.78c-2-1.23-2.36-2.44-.62-4.45,10.72-12.33,10.79-26.85.21-39.06-1.34-1.55-1.68-2.54,0-3.94,4.25-3.52,7.79-7.31,6.3-13.63-.47-2,1.46-1.6,2.58-1.24,15.79,5,31.55,10.09,47.36,15.05,3.74,1.18,3.26,4.48,3.76,7.06C292.18,74.71,293.91,85.12,295.75,95.5Z"/><path class="cls-12" d="M129,47.82c-.68-3.65-1.26-7.32-2.07-10.93-.57-2.53.35-3.5,2.8-3.36,23.32,0,46.64.16,69.95,0,7.13,0,14.11.17,20.78,3a5.35,5.35,0,0,0,.68.11,17.17,17.17,0,0,1,6.46,6.06c1.69,3,1.34,5-1.5,7.11a15.69,15.69,0,0,1-9.37,3.2c-27.67.05-55.33,0-83,.11C129.54,53.14,129.9,50.16,129,47.82Z"/><path class="cls-9" d="M129,47.82c1,4.28,4,4.58,7.77,4.56,25.43-.15,50.85-.08,76.28-.09a29.07,29.07,0,0,0,4.48-.06c3.83-.62,8.13-1.31,9.79-5.12s-1.92-6.18-4.44-8.53c-.63-.59-1.16-1.29-1.74-1.94,4.75,1.36,8.46,4.61,8.05,9.34-.51,6.09-6.5,7.57-11.27,7.63-28.41.34-56.82.15-85.24.24-2.39,0-2.7-1.74-3.64-3.08C129,49.78,129,48.8,129,47.82Z"/><path class="cls-15" d="M214.36,127.36c-24.82,1.27-49.66.19-74.49.6-4.1.07-6-1-5.76-5.74.64-15.3-2-13.7,14-13.73,21.48,0,43,0,64.45,0a28.16,28.16,0,0,1,10.93,1.87c5,2,5.92,6,2.59,10.29-3,3.84-8,3.88-11.44,6.65Z"/><path class="cls-10" d="M133.55,86.76A92.73,92.73,0,0,0,132,68c-1.05-6.17,1.61-7.71,7.64-7.61,22.48.36,45,.11,67.45.16,11.67,0,20.55,6.73,22,17.72,1.42,10.51-6.78,21.7-17.91,21.86-23.6.34-47.22-.05-70.83.26-4.87.06-5.8-2.08-6.08-6C134.07,91.89,134.92,89.22,133.55,86.76Z"/></svg>